<svg width="65" height="55" viewBox="0 0 65 55" fill="none" xmlns="http://www.w3.org/2000/svg">
<path d="M0.528748 0H15.5195V14.9907H0.528748V0Z" fill="url(#paint0_linear_2_10)"/>
<path d="M48.2265 0H63.2173V14.9907H48.2265V0Z" fill="url(#paint1_linear_2_10)"/>
<path d="M15.5195 14.9907L26.4218 14.9908V25.8931H15.5195L15.5195 14.9907Z" fill="url(#paint2_linear_2_10)"/>
<path d="M26.4218 25.8931L37.3242 25.8931V36.7954H26.4218L26.4218 25.8931Z" fill="url(#paint3_linear_2_10)"/>
<path d="M37.3242 14.9908L48.2265 14.9907L48.2265 25.8931L37.3242 25.8931L37.3242 14.9908Z" fill="url(#paint4_linear_2_10)"/>
<path d="M0 54.5118V43.9801H7.76793V46.008H2.63292V48.2157H7.16285V50.2762H2.63292V52.484H7.76793V54.5118H0Z" fill="black"/>
<path d="M9.02319 54.5118V43.9801H13.5858C14.6543 43.9801 15.5537 44.16 16.2842 44.5198C17.0146 44.8687 17.5706 45.4356 17.9522 46.2206C18.3338 46.9946 18.5246 48.0249 18.5246 49.3114C18.5246 51.1212 18.1049 52.4404 17.2654 53.2689C16.4368 54.0975 15.2103 54.5118 13.5858 54.5118H9.02319ZM11.6561 52.484H13.226C13.793 52.484 14.2672 52.4022 14.6488 52.2387C15.0413 52.0642 15.3357 51.7481 15.5319 51.2902C15.739 50.8323 15.8426 50.1727 15.8426 49.3114C15.8426 48.4392 15.7499 47.7687 15.5646 47.2999C15.3902 46.8202 15.1067 46.4877 14.7142 46.3023C14.3326 46.1061 13.8366 46.008 13.226 46.008H11.6561V52.484Z" fill="black"/>
<path d="M24.6259 54.6753C23.6447 54.6753 22.7888 54.5173 22.0584 54.2011C21.3388 53.8849 20.7773 53.4161 20.3739 52.7947C19.9815 52.1732 19.7852 51.4101 19.7852 50.5052V43.9801H22.4181V50.2599C22.4181 50.9903 22.6089 51.5355 22.9905 51.8952C23.3721 52.255 23.9172 52.4349 24.6259 52.4349C25.3345 52.4349 25.8796 52.255 26.2612 51.8952C26.6428 51.5355 26.8336 50.9903 26.8336 50.2599V43.9801H29.4665V50.5052C29.4665 51.4101 29.2648 52.1732 28.8614 52.7947C28.4689 53.4161 27.9075 53.8849 27.177 54.2011C26.4575 54.5173 25.6071 54.6753 24.6259 54.6753Z" fill="black"/>
<path d="M36.3774 54.6753C34.5349 54.6753 33.1285 54.2065 32.1582 53.2689C31.1988 52.3204 30.7191 51.0067 30.7191 49.3277C30.7191 47.5725 31.1879 46.2151 32.1255 45.2557C33.074 44.2963 34.4859 43.8166 36.3611 43.8166C37.0043 43.8166 37.5767 43.8656 38.0782 43.9638C38.5906 44.0619 39.0812 44.1927 39.55 44.3563V46.6621C38.6015 46.2696 37.6039 46.0734 36.5573 46.0734C35.4671 46.0734 34.6657 46.335 34.1533 46.8583C33.6518 47.3817 33.4011 48.2048 33.4011 49.3277C33.4011 50.3962 33.6682 51.1811 34.2024 51.6826C34.7366 52.1841 35.5325 52.4349 36.59 52.4349C37.1024 52.4349 37.6094 52.3913 38.1109 52.3041C38.6124 52.206 39.0975 52.0588 39.5664 51.8625V54.1847C39.1085 54.3374 38.6233 54.4573 38.1109 54.5445C37.5985 54.6317 37.0207 54.6753 36.3774 54.6753Z" fill="black"/>
<path d="M43.3365 54.5118V46.008H40.2457V43.9801H49.0602V46.008H45.9694V54.5118H43.3365Z" fill="black"/>
<path d="M50.2424 54.5118V43.9801H52.8753V54.5118H50.2424Z" fill="black"/>
<path d="M57.9947 54.5118L53.9718 43.9801H56.7192L59.4011 51.5028L62.0995 43.9801H64.8632L60.8403 54.5118H57.9947Z" fill="black"/>
<defs>
<linearGradient id="paint0_linear_2_10" x1="42.7754" y1="14.9908" x2="42.7754" y2="25.8931" gradientUnits="userSpaceOnUse">
<stop offset="0.34" stop-color="#2F3CB8"/>
<stop offset="1" stop-color="#307EDA"/>
</linearGradient>
<linearGradient id="paint1_linear_2_10" x1="42.7754" y1="14.9908" x2="42.7754" y2="25.8931" gradientUnits="userSpaceOnUse">
<stop offset="0.34" stop-color="#2F3CB8"/>
<stop offset="1" stop-color="#307EDA"/>
</linearGradient>
<linearGradient id="paint2_linear_2_10" x1="42.7754" y1="14.9908" x2="42.7754" y2="25.8931" gradientUnits="userSpaceOnUse">
<stop offset="0.34" stop-color="#2F3CB8"/>
<stop offset="1" stop-color="#307EDA"/>
</linearGradient>
<linearGradient id="paint3_linear_2_10" x1="42.7754" y1="14.9908" x2="42.7754" y2="25.8931" gradientUnits="userSpaceOnUse">
<stop offset="0.34" stop-color="#2F3CB8"/>
<stop offset="1" stop-color="#307EDA"/>
</linearGradient>
<linearGradient id="paint4_linear_2_10" x1="42.7754" y1="14.9908" x2="42.7754" y2="25.8931" gradientUnits="userSpaceOnUse">
<stop offset="0.34" stop-color="#2F3CB8"/>
<stop offset="1" stop-color="#307EDA"/>
</linearGradient>
</defs>
</svg>
